:SAMPLES-PER-SECOND 30
:FRAME-RANGE 1-4244
:FULLY-SPECIFIED
:DEGREES
1327
root  52.6123 37.36 -9.73672 -170.234 -65.808 -179.04
RightUpLeg  -16.9132 -2.59031 -12.2472
RightLeg  30.8927 -0.407922 -0.502268
RightFoot  -22.696 1.58614 17.3918
RightToes  -1.33073e-015 0 -3.6325e-017
Spine  11.3145 1.04938 6.97702
Spine1  1.97396 2.56022 -4.94898
HEad  -1.05692 34.2557 -17.1817
LeftShoulder1  1.4059 -1.92456 -20.7184
LeftArm  -11.6051 5.56119 -46.1872
LeftForeArm  74.97 -76.9878 -40.6262
LeftHand  0.0292204 5.59179 20.8006
RightShoulder  2.09658 4.8944 19.1867
RightArm  -4.71086 26.3414 62.4484
RightForeArm  79.1314 77.0728 39.7898
RightHand  0.612368 -9.73925 -16.8625
LeftUpLeg  -39.0133 -4.05589 13.351
LeftLeg  47.8338 4.34153 5.55416
LeftFoot  -11.9484 0.0116414 -11.2478
LeftToes  2.72522e-012 8.43823e-011 6.24977e-012
1328
root  53.3911 37.6341 -9.89559 -170.585 -66.7117 -178.981
RightUpLeg  -17.2573 -4.23414 -11.2659
RightLeg  30.2948 0.119675 -0.161563
RightFoot  -21.2554 1.29195 16.4645
RightToes  -1.33073e-015 0 -3.6325e-017
Spine  10.667 1.0244 7.37951
Spine1  1.90538 2.59831 -5.08414
HEad  0.963384 33.7133 -16.5614
LeftShoulder1  1.35872 -1.78976 -20.4878
LeftArm  -13.3685 6.20531 -45.301
LeftForeArm  73.6326 -77.0332 -41.299
LeftHand  0.0656731 5.78213 21.3203
RightShoulder  2.06162 4.89373 18.727
RightArm  -6.14646 27.1776 62.1448
RightForeArm  81.9952 77.7412 42.5167
RightHand  0.666054 -9.87703 -17.68
LeftUpLeg  -36.5626 -1.93798 10.8656
LeftLeg  50.9751 5.04423 7.10103
LeftFoot  -12.9341 -0.0740533 -10.8615
LeftToes  2.72522e-012 8.43823e-011 6.24977e-012
1329
root  54.1171 37.7976 -10.0063 -171.732 -67.1912 -178.105
RightUpLeg  -17.8339 -4.47677 -10.114
RightLeg  30.1424 -0.121537 -0.313408
RightFoot  -20.138 1.0931 15.9041
RightToes  -1.33073e-015 0 -3.6325e-017
Spine  10.1325 1.01644 7.80809
Spine1  1.87545 2.6644 -5.21789
HEad  2.31507 33.6978 -16.2451
LeftShoulder1  1.31691 -1.67291 -20.2582
LeftArm  -15.2849 6.70978 -44.0083
LeftForeArm  73.527 -77.3618 -43.2024
LeftHand  0.137772 6.14161 22.0901
RightShoulder  2.04734 4.9401 18.3867
RightArm  -7.27831 28.2964 61.8391
RightForeArm  86.3889 78.5884 46.6089
RightHand  0.743084 -10.212 -18.2681
LeftUpLeg  -33.7225 -1.41147 10.0407
LeftLeg  53.1875 5.17907 7.8684
LeftFoot  -13.3527 -0.11839 -11.2593
LeftToes  2.72522e-012 8.43823e-011 6.24977e-012
1330
root  54.8278 37.87 -10.0357 -173.275 -68.0338 -176.646
RightUpLeg  -18.6201 -4.93813 -8.85188
RightLeg  30.2598 -0.526046 -0.569723
RightFoot  -19.3022 0.942841 15.3573
RightToes  -1.33073e-015 0 -3.6325e-017
Spine  9.83176 0.79884 8.16085
Spine1  1.45687 2.42109 -5.0118
HEad  3.27195 33.5891 -16.0024
LeftShoulder1  1.27445 -1.57583 -19.8889
LeftArm  -17.3624 6.83558 -43.1587
LeftForeArm  75.0542 -77.7727 -45.2539
LeftHand  0.168981 6.27858 22.6444
RightShoulder  2.00569 4.87991 18.031
RightArm  -8.04101 29.4224 61.5488
RightForeArm  90.9154 79.2957 50.7943
RightHand  0.832328 -10.445 -19.3951
LeftUpLeg  -31.1279 -1.27809 10.4556
LeftLeg  54.2747 5.47531 8.61516
LeftFoot  -13.5545 -0.128864 -10.8388
LeftToes  2.72522e-012 8.43823e-011 6.24977e-012
1331
root  55.5398 37.8659 -9.99896 -173.96 -69.4706 -176.014
RightUpLeg  -19.8664 -5.67805 -8.09621
RightLeg  31.2977 -1.14421 -0.992003
RightFoot  -18.6818 0.845059 15.0802
RightToes  -1.33073e-015 0 -3.6325e-017
Spine  9.58544 0.49438 7.74329
Spine1  1.11338 1.98479 -4.58793
HEad  3.96934 33.0559 -15.596
LeftShoulder1  1.31165 -1.75342 -19.6952
LeftArm  -18.8219 6.11637 -42.4331
LeftForeArm  77.2957 -78.1865 -47.3349
LeftHand  0.207651 6.47652 22.6372
RightShoulder  1.9585 4.72791 17.8933
RightArm  -9.14224 30.1586 60.6275
RightForeArm  96.6315 80.0306 56.4199
RightHand  0.935896 -10.7443 -20.4727
LeftUpLeg  -28.7821 -1.79651 11.4269
LeftLeg  54.2812 6.69795 10.387
LeftFoot  -14.5837 -0.214817 -10.6451
LeftToes  2.72522e-012 8.43823e-011 6.24977e-012
1332
root  56.2088 37.7881 -9.89828 -174.073 -71.2471 -176.206
RightUpLeg  -21.0559 -6.89375 -7.84034
RightLeg  32.8687 -1.62817 -1.37932
RightFoot  -18.386 0.788519 14.7717
RightToes  -1.33073e-015 0 -3.6325e-017
Spine  9.19133 0.244769 7.02962
Spine1  1.46076 1.6214 -4.2845
HEad  4.37194 31.7845 -14.9224
LeftShoulder1  1.43839 -2.28689 -19.4755
LeftArm  -19.8252 4.0162 -42.6606
LeftForeArm  77.8426 -78.2969 -47.971
LeftHand  0.228983 6.57914 22.7416
RightShoulder  1.86962 4.4956 17.438
RightArm  -10.5927 30.4013 59.9242
RightForeArm  101.091 80.5349 62.0317
RightHand  1.04695 -10.9177 -22.0368
LeftUpLeg  -26.3686 -3.0168 12.8023
LeftLeg  53.4904 8.17129 12.1381
LeftFoot  -15.1354 -0.231482 -9.70294
LeftToes  2.72522e-012 8.43823e-011 6.24977e-012
1333
root  56.8445 37.6751 -9.69971 -174.823 -73.382 -175.724
RightUpLeg  -21.9885 -7.58771 -7.63034
RightLeg  34.1413 -2.68427 -2.20779
RightFoot  -18.2129 0.789998 15.146
RightToes  -1.33073e-015 0 -3.6325e-017
Spine  8.98098 -0.209512 6.66795
Spine1  1.4809 1.06568 -3.96656
HEad  5.52024 30.6871 -13.9331
LeftShoulder1  1.54342 -2.70742 -19.4215
LeftArm  -20.4283 0.954508 -43.3159
LeftForeArm  77.6611 -78.195 -47.2396
LeftHand  0.339004 7.05746 23.714
RightShoulder  1.86776 4.46717 17.5069
RightArm  -12.1872 30.7174 59.1239
RightForeArm  103.212 80.6966 63.8295
RightHand  1.21979 -11.2219 -24.1391
LeftUpLeg  -24.1989 -4.13176 14.8736
LeftLeg  51.806 8.79185 12.2382
LeftFoot  -14.9366 -0.20358 -9.31642
LeftToes  2.72522e-012 8.43823e-011 6.24977e-012
